<svg width="100" height="100" viewBox="0 0 100 100" fill="none" xmlns="http://www.w3.org/2000/svg">
<path d="M50 4C24.6191 4 4 24.6191 4 50C4 75.3809 24.6191 96 50 96C75.3809 96 96 75.3809 96 50C96 24.6191 75.3809 4 50 4ZM50 8C73.2191 8 92 26.7809 92 50C92 73.2191 73.2191 92 50 92C26.7809 92 8 73.2191 8 50C8 26.7809 26.7809 8 50 8ZM69.9766 29.9766C69.6516 29.983 69.333 30.0685 69.0485 30.2257C68.764 30.3829 68.5221 30.6071 68.3438 30.8789L47.9414 60.9531L33.3594 47.4219C33.1678 47.2376 32.9415 47.0933 32.6935 46.9975C32.4455 46.9016 32.181 46.8562 31.9153 46.8638C31.6495 46.8714 31.388 46.9319 31.1459 47.0417C30.9039 47.1516 30.6861 47.3086 30.5054 47.5036C30.3247 47.6985 30.1847 47.9276 30.0936 48.1773C30.0024 48.427 29.962 48.6924 29.9745 48.9579C29.9871 49.2234 30.0525 49.4838 30.1669 49.7237C30.2812 49.9637 30.4423 50.1785 30.6406 50.3555L48.6328 67.0508L71.6562 33.1211C71.8674 32.8185 71.9908 32.4634 72.0127 32.095C72.0346 31.7267 71.9541 31.3594 71.7803 31.034C71.6064 30.7085 71.3459 30.4374 71.0276 30.2508C70.7092 30.0642 70.3455 29.9693 69.9766 29.9766Z" fill="#BCD5AC"/>
</svg>
