<svg width="74" height="74" viewBox="0 0 74 74" fill="none" xmlns="http://www.w3.org/2000/svg">
<path d="M62.6306 31.9132C62.1973 31.9532 61.7606 31.9799 61.3206 31.9799C56.3373 31.9799 51.9573 29.4199 49.4073 25.5432V47.4666C49.4073 56.4166 42.1506 63.6699 33.204 63.6699C24.2573 63.6666 17.0006 56.4099 17.0006 47.4632C17.0006 38.5132 24.2573 31.2599 33.204 31.2599C33.544 31.2599 33.874 31.2899 34.204 31.3099V39.2966C33.8706 39.2566 33.5473 39.1966 33.204 39.1966C28.6373 39.1966 24.934 42.8999 24.934 47.4666C24.934 52.0332 28.634 55.7366 33.204 55.7366C37.774 55.7366 41.8073 52.1366 41.8073 47.5699C41.8073 47.3866 41.8873 10.3366 41.8873 10.3366H49.5173C50.234 17.1599 55.744 22.5466 62.6306 23.0399V31.9132Z" fill="black"/>
</svg>
