<svg width="88" height="74" viewBox="0 0 88 74" fill="none" xmlns="http://www.w3.org/2000/svg">
<path fill-rule="evenodd" clip-rule="evenodd" d="M43.9993 0.333252C30.046 0.333252 11.9355 3.82935 11.9355 3.82935L11.89 3.88143C5.53489 4.8978 0.666016 10.3587 0.666016 16.9999V36.9999V37.0064V56.9999V57.0064C0.672217 60.1782 1.80892 63.2439 3.87201 65.653C5.9351 68.0622 8.78945 69.6569 11.9225 70.151L11.9355 70.1705C11.9355 70.1705 30.046 73.6731 43.9993 73.6731C57.9527 73.6731 76.0631 70.1705 76.0631 70.1705L76.0697 70.164C79.2061 69.671 82.0638 68.0749 84.1284 65.663C86.1931 63.251 87.3293 60.1814 87.3327 57.0064V56.9999V37.0064V36.9999V16.9999C87.328 13.827 86.192 10.7598 84.1288 8.34928C82.0656 5.93879 79.2104 4.34309 76.0762 3.84888L76.0631 3.82935C76.0631 3.82935 57.9527 0.333252 43.9993 0.333252ZM60.666 36.9999L33.9993 21.6614V52.3385L60.666 36.9999Z" fill="black"/>
</svg>
